<svg xmlns="http://www.w3.org/2000/svg" viewBox="0 0 750 500"><g id="freepik--background-simple--inject-2"><path d="M670.88,36.71l-1.73-.2A39.29,39.29,0,0,0,632,53a37.56,37.56,0,0,0-2.8,4.84,41.23,41.23,0,0,0,2.11,38.88c4.21,6.82,10.55,12.74,12,20.58,1.88,10.21-5.12,19.61-11.7,27.54S618.06,162.23,620,172.43c1.21,6.39,5.84,11.72,11.2,15.46,14.21,9.89,33.8,9.87,49.26,2.5s27.09-21.18,34.71-36.48c10.68-21.44,14.14-47,6.53-70S694.58,41.54,670.88,36.71Z" style="fill:#f5f5f5"></path><path d="M55.75,200.61l1.58.74a39.29,39.29,0,0,0,40.45-3.85,36.93,36.93,0,0,0,4.2-3.7,41.24,41.24,0,0,0,10.37-37.54c-1.82-7.79-5.95-15.43-4.82-23.32,1.46-10.28,11.09-17,19.86-22.39s18.38-12.14,19.8-22.42c.89-6.44-1.81-13-5.7-18.22-10.33-13.89-28.9-20.11-45.91-18S63.17,63.33,51.07,75.42c-17,16.92-28.37,40.1-28.45,64.25S34.82,188.49,55.75,200.61Z" style="fill:#f5f5f5"></path><circle cx="668.73" cy="252.66" r="30.62" style="fill:#f5f5f5"></circle></g><g id="freepik--Floor--inject-2"><path d="M703.33,347c0,.14-148.4.26-331.41.26S40.48,347.13,40.48,347s148.36-.26,331.44-.26S703.33,346.85,703.33,347Z" style="fill:#263238"></path><path d="M689.1,461.1c0,.14-142,.26-317.18.26s-317.21-.12-317.21-.26,142-.26,317.21-.26S689.1,461,689.1,461.1Z" style="fill:#263238"></path></g><g id="freepik--Device--inject-2"><rect x="163.9" y="46.99" width="443.49" height="293.28" rx="14.57" style="fill:#e0e0e0"></rect><path d="M592.82,340.27l.95-.06a7,7,0,0,0,1.15-.13,9.42,9.42,0,0,0,1.59-.33,13.52,13.52,0,0,0,4.19-1.85,14.33,14.33,0,0,0,4.41-4.49A15.07,15.07,0,0,0,606.7,330a15.91,15.91,0,0,0,.62-4.18c0-3,0-6.23,0-9.76,0-7.05,0-15.19,0-24.35,0-36.65,0-89.69-.08-155.22q0-24.57,0-51.43V64.59a24.75,24.75,0,0,0-.53-6.83,14.36,14.36,0,0,0-9.1-9.74,14,14,0,0,0-1.68-.48c-.57-.12-1.15-.2-1.73-.27-1.17-.08-2.36-.07-3.56-.06H583.4l-123,0-281.88,0a14.37,14.37,0,0,0-13.74,10.23,15.6,15.6,0,0,0-.6,4.52v50.71q0,36.53,0,71.92c0,47.16,0,92.64,0,136v4a19.5,19.5,0,0,0,.3,4,14.49,14.49,0,0,0,3.63,6.92,14,14,0,0,0,3.07,2.45,15.9,15.9,0,0,0,1.74.9,15,15,0,0,0,1.86.62c2.52.74,5.19.46,7.83.51h90.95l107.19,0,155.2.09,42.2.05,11,0,3.73,0-3.73,0-11,0-42.2.05-155.2.08-107.19,0-59.72,0H178.61a15,15,0,0,1-4-.52,16.62,16.62,0,0,1-1.92-.64,18.12,18.12,0,0,1-1.8-.94,14.23,14.23,0,0,1-3.16-2.53,14.55,14.55,0,0,1-2.37-3.3,15.9,15.9,0,0,1-1.39-3.84,20,20,0,0,1-.31-4.08v-4c0-43.33,0-88.81,0-136V62a15.75,15.75,0,0,1,.62-4.67,14.89,14.89,0,0,1,14.24-10.6l281.88,0,123,0h7.19c1.2,0,2.38,0,3.59.07a18,18,0,0,1,1.79.27,14.91,14.91,0,0,1,11.09,10.53l.22.85c.06.29.09.58.14.87a12.94,12.94,0,0,1,.16,1.75c0,1.17,0,2.32,0,3.47v6.87q0,6.84,0,13.55,0,26.83,0,51.43c0,65.53-.07,118.57-.09,155.22,0,9.16,0,17.3,0,24.35,0,3.53,0,6.79,0,9.76a15.8,15.8,0,0,1-.64,4.22,14.77,14.77,0,0,1-1.61,3.47,14.31,14.31,0,0,1-4.46,4.51,13.59,13.59,0,0,1-4.21,1.83,9.8,9.8,0,0,1-1.6.32,6.85,6.85,0,0,1-1.16.11Z" style="fill:#263238"></path><path d="M609.26,347H164.36a17.8,17.8,0,0,1-17.79-17.8v-7.86H627.06v7.86A17.8,17.8,0,0,1,609.26,347Z" style="fill:#e0e0e0"></path><path d="M609.26,347l.58,0a16.68,16.68,0,0,0,1.71-.15l1.27-.2,1.51-.39c.55-.16,1.11-.4,1.73-.62s1.25-.57,1.9-.94a18.62,18.62,0,0,0,4-3.07,17.78,17.78,0,0,0,5-12c0-2.57,0-5.33,0-8.26l.1.09-462.67.17H146.57l.26-.26v6.25a20.85,20.85,0,0,0,.6,6.12,17.48,17.48,0,0,0,6.85,9.82,18.24,18.24,0,0,0,11.49,3.21H316.44l152.72.06,102.58.08,27.83.05,7.23,0,2.46,0-2.46,0-7.23,0-27.83,0-102.58.08-152.72.06H165.77A18.76,18.76,0,0,1,154,344a18,18,0,0,1-7-10.12,21.6,21.6,0,0,1-.62-6.25v-6.51h18.08l462.67.16h.09v.1c0,2.93,0,5.68,0,8.27A17.81,17.81,0,0,1,622,341.66a18.85,18.85,0,0,1-4,3.08c-.66.37-1.31.65-1.91.93s-1.2.46-1.75.61l-1.52.38-1.27.19a13.15,13.15,0,0,1-1.72.12Z" style="fill:#263238"></path><polygon points="341.93 321.33 347.89 330.81 431.79 330.81 437.32 321.33 341.93 321.33" style="fill:#263238"></polygon><rect x="184.42" y="67.03" width="402.07" height="238.49" rx="8.48" style="fill:#455a64"></rect><path d="M577.83,305.52a9.15,9.15,0,0,0,3.18-.64,8.55,8.55,0,0,0,3.25-2.29,8.67,8.67,0,0,0,2.14-5c.06-8.42,0-20.87,0-36.89,0-32,0-78.4-.09-135.68q0-21.48,0-45V77.12a15.56,15.56,0,0,0-.14-2.91,8.4,8.4,0,0,0-2.83-4.94,8.51,8.51,0,0,0-5.37-2H547.06l-107.54,0-246.41,0a8.44,8.44,0,0,0-6.81,3.46,8.16,8.16,0,0,0-1.5,3.62,33.53,33.53,0,0,0-.12,4V189.67q0,30.92,0,60.69v29.42c0,4.84,0,9.67,0,14.46,0,1.19,0,2.42.06,3.56a8.41,8.41,0,0,0,6.5,7.27,15.41,15.41,0,0,0,3.48.21h104l93.7,0,135.68.08,36.89.05,9.59,0,3.27,0-3.27,0-9.59,0-36.89.05-135.68.08-93.7,0h-104a15.47,15.47,0,0,1-3.58-.23,8.91,8.91,0,0,1-6.88-7.68c-.11-1.24,0-2.41-.06-3.61V279.78q0-14.55,0-29.42V189.67q0-30.91,0-62.87V78.4a33.48,33.48,0,0,1,.12-4.11,8.68,8.68,0,0,1,1.6-3.85,8.93,8.93,0,0,1,7.23-3.67l246.41,0,107.54,0H578a8.86,8.86,0,0,1,8.6,7.31,16.66,16.66,0,0,1,.14,3v2.94q0,23.44,0,45c0,57.28-.06,103.64-.08,135.68,0,16,0,28.46-.09,36.9a8.69,8.69,0,0,1-5.47,7.33,8.73,8.73,0,0,1-2.38.56Z" style="fill:#263238"></path><path d="M333.5,126.06v2.29H324V116h9.32v2.29h-6.48V121h5.72v2.22h-5.72v2.85Z" style="fill:#fff"></path><path d="M345.26,122.93v5.42h-2.75v-5c0-1.53-.7-2.24-1.92-2.24s-2.27.81-2.27,2.55v4.69h-2.74v-9.47h2.62V120a4.15,4.15,0,0,1,3.13-1.25C343.57,118.73,345.26,120,345.26,122.93Z" style="fill:#fff"></path><path d="M353.85,127.89a3.87,3.87,0,0,1-2.23.6c-2.24,0-3.54-1.14-3.54-3.4V121.2h-1.46v-2.11h1.46v-2.31h2.74v2.31h2.36v2.11h-2.36v3.86a1.11,1.11,0,0,0,1.19,1.25,1.83,1.83,0,0,0,1.1-.36Z" style="fill:#fff"></path><path d="M364.33,124.39h-7.16a2.52,2.52,0,0,0,2.71,1.9,3.19,3.19,0,0,0,2.37-.92l1.47,1.59a5,5,0,0,1-3.91,1.53c-3.28,0-5.41-2.06-5.41-4.88a4.83,4.83,0,0,1,5.05-4.88,4.69,4.69,0,0,1,4.93,4.92C364.38,123.86,364.35,124.16,364.33,124.39Zm-7.2-1.61h4.67a2.27,2.27,0,0,0-2.33-2A2.24,2.24,0,0,0,357.13,122.78Z" style="fill:#fff"></path><path d="M372.1,118.73v2.54c-.23,0-.41,0-.62,0a2.33,2.33,0,0,0-2.52,2.64v4.47h-2.74v-9.47h2.62v1.25A3.82,3.82,0,0,1,372.1,118.73Z" style="fill:#fff"></path><path d="M384.9,124v4.37h-2.85V124L377.28,116h3l3.3,5.48,3.29-5.48h2.8Z" style="fill:#fff"></path><path d="M388.93,123.61a5.22,5.22,0,1,1,5.22,4.88A4.88,4.88,0,0,1,388.93,123.61Zm7.63,0a2.43,2.43,0,1,0-2.41,2.63A2.39,2.39,0,0,0,396.56,123.61Z" style="fill:#fff"></path><path d="M410.72,118.88v9.47h-2.61v-1.13a3.83,3.83,0,0,1-2.94,1.27c-2.38,0-4.05-1.34-4.05-4.26v-5.35h2.75v4.94c0,1.59.7,2.29,1.92,2.29s2.18-.81,2.18-2.55v-4.68Z" style="fill:#fff"></path><path d="M419.15,118.73v2.54c-.23,0-.4,0-.61,0a2.32,2.32,0,0,0-2.52,2.64v4.47h-2.75v-9.47h2.62v1.25A3.82,3.82,0,0,1,419.15,118.73Z" style="fill:#fff"></path><path d="M425.26,122.19c0-3.67,2.85-6.38,6.75-6.38s6.74,2.7,6.74,6.38-2.87,6.37-6.74,6.37S425.26,125.85,425.26,122.19Zm10.6,0a3.86,3.86,0,1,0-3.85,3.94A3.76,3.76,0,0,0,435.86,122.19Z" style="fill:#fff"></path><path d="M443.28,118.35h-3.95V116h10.74v2.33h-3.94v10h-2.85Z" style="fill:#fff"></path><path d="M462.3,120.5c0,2.74-2.06,4.45-5.36,4.45h-2.48v3.4h-2.85V116h5.33C460.24,116,462.3,117.73,462.3,120.5Zm-2.89,0c0-1.36-.88-2.15-2.63-2.15h-2.32v4.28h2.32C458.53,122.63,459.41,121.83,459.41,120.5Z" style="fill:#fff"></path><g style="opacity:0.2"><rect x="277.94" y="153.78" width="31.29" height="42.63" rx="5.47" style="fill:#fff"></rect></g><g style="opacity:0.2"><rect x="317.31" y="153.78" width="31.29" height="42.63" rx="5.47" style="fill:#fff"></rect></g><g style="opacity:0.2"><rect x="356.69" y="153.78" width="31.29" height="42.63" rx="5.47" style="fill:#fff"></rect></g><g style="opacity:0.2"><rect x="396.06" y="153.78" width="31.29" height="42.63" rx="5.47" style="fill:#fff"></rect></g><g style="opacity:0.2"><rect x="435.43" y="153.78" width="31.29" height="42.63" rx="5.47" style="fill:#fff"></rect></g><g style="opacity:0.2"><rect x="474.8" y="153.78" width="31.29" height="42.63" rx="5.47" style="fill:#fff"></rect></g><path d="M296.85,175.27l3.75,2-1.68,2.82-3.78-2.24.06,4.16H292l0-4.19-3.78,2.27-1.65-2.82,3.74-2-3.74-2.06,1.65-2.82,3.78,2.27,0-4.19h3.23l-.06,4.19,3.78-2.27,1.68,2.82Z" style="fill:#263238"></path><rect x="342.78" y="222.58" width="98.48" height="28.71" rx="13.03" style="fill:#CFD8DC"></rect><path d="M364.5,236.26a4.46,4.46,0,0,1,7.72-2.76l-1.2,1.11a2.61,2.61,0,0,0-2-.94,2.59,2.59,0,0,0,0,5.18,2.6,2.6,0,0,0,2-1l1.2,1.11a4.45,4.45,0,0,1-7.72-2.74Z" style="fill:#fff"></path><path d="M372.67,237.19a3.43,3.43,0,1,1,3.43,3.21A3.21,3.21,0,0,1,372.67,237.19Zm5,0a1.6,1.6,0,1,0-1.58,1.73A1.57,1.57,0,0,0,377.68,237.19Z" style="fill:#fff"></path><path d="M387.07,236.74v3.56h-1.8V237c0-1-.47-1.47-1.26-1.47s-1.5.53-1.5,1.68v3.07h-1.8v-6.22h1.72v.73a2.75,2.75,0,0,1,2.06-.82A2.44,2.44,0,0,1,387.07,236.74Z" style="fill:#fff"></path><path d="M392.71,240a2.54,2.54,0,0,1-1.47.4,2.05,2.05,0,0,1-2.32-2.24v-2.55h-1v-1.39h1v-1.51h1.8v1.51h1.55v1.39h-1.55v2.53a.73.73,0,0,0,.78.82,1.24,1.24,0,0,0,.73-.23Z" style="fill:#fff"></path><path d="M393.51,232.21a1,1,0,0,1,1.12-1,1,1,0,0,1,1.12,1,1.13,1.13,0,0,1-2.24,0Zm.22,1.87h1.8v6.22h-1.8Z" style="fill:#fff"></path><path d="M403.57,236.74v3.56h-1.8V237c0-1-.47-1.47-1.26-1.47s-1.5.53-1.5,1.68v3.07h-1.8v-6.22h1.72v.73A2.75,2.75,0,0,1,401,234,2.44,2.44,0,0,1,403.57,236.74Z" style="fill:#fff"></path><path d="M411.47,234.08v6.22h-1.71v-.74a2.51,2.51,0,0,1-1.93.84,2.48,2.48,0,0,1-2.66-2.8v-3.52H407v3.25c0,1,.46,1.51,1.26,1.51s1.44-.54,1.44-1.68v-3.08Z" style="fill:#fff"></path><path d="M419.21,237.7H414.5a1.65,1.65,0,0,0,1.78,1.25,2.13,2.13,0,0,0,1.56-.6l1,1a3.63,3.63,0,0,1-6.12-2.2A3.17,3.17,0,0,1,416,234a3.08,3.08,0,0,1,3.24,3.23C419.24,237.36,419.22,237.55,419.21,237.7Zm-4.73-1h3.06a1.48,1.48,0,0,0-1.53-1.3A1.46,1.46,0,0,0,414.48,236.65Z" style="fill:#fff"></path><path d="M394.48,57.1a4.42,4.42,0,1,1-4.41-4.42A4.41,4.41,0,0,1,394.48,57.1Z" style="fill:#263238"></path><path d="M556.69,81.44V77.2a.87.87,0,0,1,.83-.91h6.37a.87.87,0,0,1,.83.91v4.24a.87.87,0,0,1-.83.91h-6.37A.87.87,0,0,1,556.69,81.44Z" style="fill:#263238"></path><path d="M568.77,83.79H556.19a1.13,1.13,0,0,1-1.12-1.13V75.73a1.12,1.12,0,0,1,1.12-1.12h12.4a1,1,0,0,1,1,1v1.28a.16.16,0,0,0,.16.16h1.36a.67.67,0,0,1,.67.67V80a.83.83,0,0,1-.83.83h-1a.17.17,0,0,0-.17.17v1.77A1,1,0,0,1,568.77,83.79Zm-12.58-8.68a.62.62,0,0,0-.62.62v6.93a.63.63,0,0,0,.62.63h12.58a.53.53,0,0,0,.52-.53V81a.67.67,0,0,1,.67-.67h1a.33.33,0,0,0,.33-.33V77.74a.18.18,0,0,0-.17-.17h-1.36a.67.67,0,0,1-.66-.66V75.63a.52.52,0,0,0-.53-.52Z" style="fill:#263238"></path></g><g id="freepik--Plant--inject-2"><path d="M668.68,296.65a1.52,1.52,0,0,1-.1.38l-.36,1.09c-.32.95-.78,2.35-1.43,4.15-1.26,3.6-3.16,8.79-5.67,15.14a346.88,346.88,0,0,1-23.15,48A107.1,107.1,0,0,0,631.36,379a61.54,61.54,0,0,0-3.54,13.62,97.33,97.33,0,0,0,0,23.85c.73,6.78,1.71,12.22,2.34,16,.32,1.85.57,3.31.75,4.33.08.47.14.84.18,1.12a2.33,2.33,0,0,1,.05.39,2.58,2.58,0,0,1-.1-.38c-.06-.27-.14-.64-.23-1.12-.2-1-.49-2.46-.85-4.31-.69-3.75-1.73-9.18-2.51-16a96.29,96.29,0,0,1-.06-24,61.3,61.3,0,0,1,3.53-13.73,106.23,106.23,0,0,1,6.64-13.7,361.15,361.15,0,0,0,23.25-47.89c2.56-6.32,4.51-11.49,5.83-15.07.66-1.77,1.17-3.15,1.52-4.12l.41-1.07C668.62,296.77,668.68,296.65,668.68,296.65Z" style="fill:#263238"></path><path d="M659,356.62a4.09,4.09,0,0,1-.32.58l-1,1.61c-.88,1.4-2.19,3.4-3.81,5.86-3.24,4.93-7.86,11.64-12.51,19.34-2.3,3.86-4.35,7.62-6.07,11.11s-3.1,6.72-4.19,9.45-1.89,5-2.39,6.55c-.26.74-.46,1.34-.62,1.8a2.81,2.81,0,0,1-.25.61,2.67,2.67,0,0,1,.15-.64c.13-.47.31-1.08.52-1.83.45-1.59,1.22-3.85,2.24-6.62s2.39-6,4.1-9.53,3.75-7.3,6.07-11.17c4.65-7.72,9.33-14.4,12.64-19.28l3.95-5.76,1.09-1.56A3.24,3.24,0,0,1,659,356.62Z" style="fill:#263238"></path><path d="M668.58,296.65c.25-2.44-2.39-4.87-4.69-5.73a12.9,12.9,0,0,0-7.26,0A37.17,37.17,0,0,0,628.76,320a181.5,181.5,0,0,1,19.77-8.36l-1.14.33A23.07,23.07,0,0,0,663,300.55a12.36,12.36,0,0,1,2.09-3.2,3.09,3.09,0,0,1,3.51-.7" style="fill:#455a64"></path><path d="M668.6,296.63a29.91,29.91,0,0,1,21.88-4.91,26.17,26.17,0,0,1,18.19,12.81,23.24,23.24,0,0,1,.11,22c-3.54-7.35-7.33-15-13.91-19.82-1.55-1.12-3.29-2.15-4.16-3.86-1-2-.59-4.41-1.46-6.45-1.06-2.51-4-3.25-6.71-3.39s-10.62,2.37-13.94,3.58" style="fill:#455a64"></path><path d="M668.43,296.51c6.54-1.94,13.94,1.26,18.4,6.16s6.71,11.48,7.48,18.06.15,13.23-.52,19.82a82.65,82.65,0,0,1-11.27-25c-1-4-1.82-8.16-3.71-11.86a14.65,14.65,0,0,0-10.38-7.19" style="fill:#455a64"></path><path d="M668.21,296.65c5.23-2.42,8.18-7.88,8.85-13.61a17.28,17.28,0,0,0-6.34-15.28,18.51,18.51,0,0,0-4.88,19.34c1.11,3.15,3.12,6.3,2.37,9.55" style="fill:#455a64"></path><path d="M626.41,402.72a4.45,4.45,0,0,1-.33-.78c-.21-.52-.46-1.3-.87-2.28-.76-2-2-4.8-3.57-8.21a213,213,0,0,0-14.76-25.58,205,205,0,0,0-17.94-23.47,56.24,56.24,0,0,0-6.42-6.22,16.13,16.13,0,0,0-2-1.38,5.61,5.61,0,0,1-.74-.42,7.29,7.29,0,0,1,.79.32,15.48,15.48,0,0,1,2.07,1.32,51.84,51.84,0,0,1,6.56,6.13,189.69,189.69,0,0,1,18.1,23.43A195.59,195.59,0,0,1,622,391.29c1.58,3.45,2.73,6.3,3.43,8.3.38,1,.6,1.78.78,2.31A4.88,4.88,0,0,1,626.41,402.72Z" style="fill:#263238"></path><polygon points="645.23 462.46 609.49 462.46 603.92 421.09 651.88 421.09 645.23 462.46" style="fill:#CFD8DC"></polygon><path d="M678.72,371.43c-3.61-7.75-12.89-12.81-21.41-12.12a6.59,6.59,0,0,1,3.55,4.72,40.08,40.08,0,0,1,.54,6.1c.77,9.79,7.07,18.14,13.11,25.87,4.25,5.43,8.53,10.89,13.61,15.56C687.51,397.64,686.63,382.89,678.72,371.43Z" style="fill:#455a64"></path><path d="M657.31,359.42c5.41-4.16,12.39-5.89,19.22-6s13.57,1.4,20.18,3.08c4,1,8,2.12,11.41,4.42s6.11,6,6.17,10.09c-5.61-6.17-14.65-7.36-22.66-9.69-5.42-1.57-10.66-3.83-16.19-5a28.71,28.71,0,0,0-18.13,3" style="fill:#455a64"></path><path d="M658.24,358.32c-2.37-2.49-1.06-8.31,1-11.05s5.35-4.29,8.59-5.44A59.64,59.64,0,0,1,681,338.76a13.56,13.56,0,0,1-4.17,7.33,39.9,39.9,0,0,1-6.94,5l-11.67,7.22" style="fill:#455a64"></path><path d="M636,355c-6.77,3-12,8.51-17.07,13.91a75.33,75.33,0,0,0,21.31-8.82c2.62-1.6,5.22-3.39,8.22-4.06s6.36.67,8.86,2.74C653.07,352.51,642.77,352,636,355Z" style="fill:#455a64"></path><path d="M632.81,399.29c3.79-8.7,2.19-19.25,7-27.42,3.69-6.26,10.49-10,17.26-12.62,1.57,4.71.82,10-1.17,14.53s-5.15,8.49-8.48,12.17c-4.61,5.09-9.62,9.8-14.62,14.51" style="fill:#455a64"></path><rect x="600.63" y="421.09" width="53.45" height="9.31" style="fill:#CFD8DC"></rect><path d="M652.3,430.69c0,.15-11.57.26-25.83.26s-25.84-.11-25.84-.26,11.57-.26,25.84-.26S652.3,430.55,652.3,430.69Z" style="fill:#263238"></path><path d="M671,297a59.28,59.28,0,0,0-6.21-9.35,19.87,19.87,0,0,0-9.13-6.29c-4.82-1.41-10-.29-14.8,1.14a118.49,118.49,0,0,0-16.43,6.26,32.56,32.56,0,0,0,21.84.39c3.68-1.25,7.25-1.09,11.11-.65,4.7.53,10.58,4.88,13.62,8.5" style="fill:#455a64"></path><path d="M543.34,352.16c-8.42,10.72-11.23,25-10.28,38.64a92.59,92.59,0,0,1,29.88-46.41c5.5-4.56,12.52-8.18,19.33-8.18C568.26,335,552,341.1,543.34,352.16Z" style="fill:#455a64"></path><path d="M562.9,330.63c-4.7.35-9,2.73-12.88,5.39-5.94,4.08-11.52,9.23-14.11,16a49.45,49.45,0,0,1,43.33-17.11C574.12,332.33,568.6,330.21,562.9,330.63Z" style="fill:#455a64"></path><path d="M576.06,314.53c-2.72,1.89-4.8,5-4.66,8.3a10.15,10.15,0,0,0,2.7,6.11,40.63,40.63,0,0,0,5.69,5.44c1.73-7.64,3.8-15.62,5.53-23.26A24.69,24.69,0,0,0,576.06,314.53Z" style="fill:#455a64"></path><path d="M592,313.8a22.82,22.82,0,0,0-8.74,9.51c-1.79,4-2.53,9-.28,12.74a326.91,326.91,0,0,1,20.84-27.84A68,68,0,0,0,592,313.8Z" style="fill:#455a64"></path><path d="M605.47,326.92a26.22,26.22,0,0,0-22.31,9.78,21.76,21.76,0,0,1,12-2.27,287.07,287.07,0,0,1,30.79,5.71A26.21,26.21,0,0,0,605.47,326.92Z" style="fill:#455a64"></path><path d="M584.14,336.05c-7.94.44-14.88,6.55-17.65,14s-1.82,15.9,1.17,23.26,7.9,13.78,13.09,19.8c2.6-9,5.22-18,6.37-27.22S587.39,344.79,584.14,336.05Z" style="fill:#455a64"></path><g style="opacity:0.30000000000000004"><path d="M543.34,352.16c-8.42,10.72-11.23,25-10.28,38.64a92.59,92.59,0,0,1,29.88-46.41c5.5-4.56,12.52-8.18,19.33-8.18C568.26,335,552,341.1,543.34,352.16Z"></path><path d="M562.9,330.63c-4.7.35-9,2.73-12.88,5.39-5.94,4.08-11.52,9.23-14.11,16a49.45,49.45,0,0,1,43.33-17.11C574.12,332.33,568.6,330.21,562.9,330.63Z"></path><path d="M576.06,314.53c-2.72,1.89-4.8,5-4.66,8.3a10.15,10.15,0,0,0,2.7,6.11,40.63,40.63,0,0,0,5.69,5.44c1.73-7.64,3.8-15.62,5.53-23.26A24.69,24.69,0,0,0,576.06,314.53Z"></path><path d="M592,313.8a22.82,22.82,0,0,0-8.74,9.51c-1.79,4-2.53,9-.28,12.74a326.91,326.91,0,0,1,20.84-27.84A68,68,0,0,0,592,313.8Z"></path><path d="M605.47,326.92a26.22,26.22,0,0,0-22.31,9.78,21.76,21.76,0,0,1,12-2.27,287.07,287.07,0,0,1,30.79,5.71A26.21,26.21,0,0,0,605.47,326.92Z"></path><path d="M584.14,336.05c-7.94.44-14.88,6.55-17.65,14s-1.82,15.9,1.17,23.26,7.9,13.78,13.09,19.8c2.6-9,5.22-18,6.37-27.22S587.39,344.79,584.14,336.05Z"></path></g><g style="opacity:0.2"><path d="M678.72,371.43c-3.61-7.75-12.89-12.81-21.41-12.12a6.59,6.59,0,0,1,3.55,4.72,40.08,40.08,0,0,1,.54,6.1c.77,9.79,7.07,18.14,13.11,25.87,4.25,5.43,8.53,10.89,13.61,15.56C687.51,397.64,686.63,382.89,678.72,371.43Z"></path><path d="M657.31,359.42c5.41-4.16,12.39-5.89,19.22-6s13.57,1.4,20.18,3.08c4,1,8,2.12,11.41,4.42s6.11,6,6.17,10.09c-5.61-6.17-14.65-7.36-22.66-9.69-5.42-1.57-10.66-3.83-16.19-5a28.71,28.71,0,0,0-18.13,3"></path><path d="M658.24,358.32c-2.37-2.49-1.06-8.31,1-11.05s5.35-4.29,8.59-5.44A59.64,59.64,0,0,1,681,338.76a13.56,13.56,0,0,1-4.17,7.33,39.9,39.9,0,0,1-6.94,5l-11.67,7.22"></path><path d="M636,355c-6.77,3-12,8.51-17.07,13.91a75.33,75.33,0,0,0,21.31-8.82c2.62-1.6,5.22-3.39,8.22-4.06s6.36.67,8.86,2.74C653.07,352.51,642.77,352,636,355Z"></path><path d="M632.81,399.29c3.79-8.7,2.19-19.25,7-27.42,3.69-6.26,10.49-10,17.26-12.62,1.57,4.71.82,10-1.17,14.53s-5.15,8.49-8.48,12.17c-4.61,5.09-9.62,9.8-14.62,14.51"></path></g></g><g id="freepik--speech-bubble--inject-2"><path d="M306.18,218.45H210a5,5,0,0,0-5,5v43.82a5,5,0,0,0,5,5h40.35l8.57,11,7.15-11h40.12a5,5,0,0,0,5-5V223.46A5,5,0,0,0,306.18,218.45Z" style="fill:#fff"></path><path d="M306.18,218.45h.48a4.75,4.75,0,0,1,1.37.31,4.94,4.94,0,0,1,1.89,1.28,5,5,0,0,1,1.31,2.86c.09,4.77.07,11.71.1,20.5,0,4.39,0,9.25,0,14.51,0,2.63,0,5.37,0,8.2a12.42,12.42,0,0,1-.1,2.18,5.05,5.05,0,0,1-.91,2.05,5.19,5.19,0,0,1-3.95,2.13l-40.36,0,.2-.11-7.14,11-.19.29-.21-.27-8.58-11,.2.1H211.49c-.7,0-1.36,0-2.1,0a5.27,5.27,0,0,1-4.54-4.07,9.36,9.36,0,0,1-.13-2.09v-2q0-8.15,0-16V232.81q0-3.8,0-7.5v-1.85a5.24,5.24,0,0,1,2.85-4.66,5.16,5.16,0,0,1,1.8-.55c.63-.06,1.21,0,1.81,0h10.52l13.3,0,23.89,0,34.59.08,9.4.05,2.45,0,.83,0-.83,0-2.45,0-9.4.05-34.59.08-23.89,0H211.2c-.59,0-1.2,0-1.76,0a4.48,4.48,0,0,0-1.63.5,4.77,4.77,0,0,0-2.58,4.23v9.35c0,5.05,0,10.22,0,15.47v18.07a9.17,9.17,0,0,0,.12,2,4.77,4.77,0,0,0,2.25,3.05,4.6,4.6,0,0,0,1.84.61c.64.06,1.36,0,2,0h39l.07.1,8.57,11-.4,0,7.15-11,.07-.11h.13l40.34,0a4.81,4.81,0,0,0,4.5-3.84,12.24,12.24,0,0,0,.1-2.11c0-2.83,0-5.57,0-8.2,0-5.26,0-10.12,0-14.51,0-8.78.07-15.75,0-20.49a5,5,0,0,0-3.08-4.08A6,6,0,0,0,306.18,218.45Z" style="fill:#263238"></path><rect x="221.7" y="228.03" width="12.14" height="9.4" rx="1.28" style="fill:#CFD8DC"></rect><path d="M221.9,228.28l4.62,4.93a1.87,1.87,0,0,0,1,.69,1.46,1.46,0,0,0,1.35-.52c.84-.86,1.64-1.75,2.46-2.62s1.56-1.65,2.33-2.48a.13.13,0,0,0-.18-.18l-4.41,4.7a3.87,3.87,0,0,1-.7.7c-.66.42-1.22,0-1.66-.47-.84-.88-1.67-1.77-2.5-2.66l-2.12-2.27c-.11-.11-.29.06-.18.18Z" style="fill:#fff"></path><path d="M221.85,237.37l3.71-4.22.52-.59c.11-.12-.07-.3-.17-.18-1.24,1.41-2.48,2.81-3.71,4.22l-.53.59c-.1.12.07.3.18.18Z" style="fill:#fff"></path><path d="M233.65,237l-3.47-4-.5-.58c-.11-.13-.28,0-.18.17l3.47,4c.17.2.34.39.5.59s.29-.06.18-.18Z" style="fill:#fff"></path><path d="M242.8,235.93v-3.11l-1.53,2.56h-.54l-1.52-2.5v3.05h-1.13v-5.19h1L241,234l1.91-3.23h1v5.19Z" style="fill:#263238"></path><path d="M249,234.26h-3a1.06,1.06,0,0,0,1.14.8,1.34,1.34,0,0,0,1-.38l.62.67a2.1,2.1,0,0,1-1.65.64,2.07,2.07,0,0,1-2.28-2.05,2,2,0,0,1,2.13-2.06A2,2,0,0,1,249,234C249,234,249,234.17,249,234.26Zm-3-.67h2a1,1,0,0,0-2,0Z" style="fill:#263238"></path><path d="M249.36,235.56l.39-.83a2.69,2.69,0,0,0,1.38.39c.54,0,.74-.15.74-.37,0-.65-2.41,0-2.41-1.58,0-.75.68-1.29,1.84-1.29a3.33,3.33,0,0,1,1.54.35l-.39.82a2.28,2.28,0,0,0-1.15-.29c-.52,0-.74.16-.74.37,0,.68,2.41,0,2.41,1.59,0,.74-.69,1.27-1.88,1.27A3.36,3.36,0,0,1,249.36,235.56Z" style="fill:#263238"></path><path d="M253.3,235.56l.38-.83a2.75,2.75,0,0,0,1.39.39c.53,0,.73-.15.73-.37,0-.65-2.41,0-2.41-1.58,0-.75.68-1.29,1.85-1.29a3.26,3.26,0,0,1,1.53.35l-.38.82a2.31,2.31,0,0,0-1.15-.29c-.52,0-.74.16-.74.37,0,.68,2.41,0,2.41,1.59,0,.74-.69,1.27-1.89,1.27A3.35,3.35,0,0,1,253.3,235.56Z" style="fill:#263238"></path><path d="M261.15,233.65v2.28h-1.09v-.5a1.29,1.29,0,0,1-1.21.56c-.94,0-1.49-.52-1.49-1.21s.49-1.19,1.71-1.19H260c0-.5-.3-.79-.92-.79a1.93,1.93,0,0,0-1.15.37l-.41-.81a3.05,3.05,0,0,1,1.72-.48C260.44,231.88,261.15,232.45,261.15,233.65Zm-1.16,1v-.41h-.79c-.54,0-.72.2-.72.47s.25.48.66.48A.85.85,0,0,0,260,234.67Z" style="fill:#263238"></path><path d="M266.35,231.94v3.32a2,2,0,0,1-2.24,2.17,3.32,3.32,0,0,1-2-.55l.46-.83a2.42,2.42,0,0,0,1.41.45c.82,0,1.17-.37,1.17-1.09v-.17a1.61,1.61,0,0,1-1.26.5,1.93,1.93,0,1,1,0-3.86,1.61,1.61,0,0,1,1.32.57v-.51Zm-1.14,1.87a1.05,1.05,0,1,0-1,1A1,1,0,0,0,265.21,233.81Z" style="fill:#263238"></path><path d="M271.31,234.26h-3a1.06,1.06,0,0,0,1.14.8,1.33,1.33,0,0,0,1-.38l.62.67a2.1,2.1,0,0,1-1.65.64,2.07,2.07,0,0,1-2.27-2.05,2,2,0,0,1,2.12-2.06,2,2,0,0,1,2.08,2.07C271.33,234,271.32,234.17,271.31,234.26Zm-3-.67h2a1,1,0,0,0-2,0Z" style="fill:#263238"></path><path d="M271.71,235.56l.39-.83a2.72,2.72,0,0,0,1.39.39c.53,0,.73-.15.73-.37,0-.65-2.41,0-2.41-1.58,0-.75.68-1.29,1.85-1.29a3.29,3.29,0,0,1,1.53.35l-.38.82a2.33,2.33,0,0,0-1.15-.29c-.52,0-.75.16-.75.37,0,.68,2.41,0,2.41,1.59,0,.74-.68,1.27-1.88,1.27A3.39,3.39,0,0,1,271.71,235.56Z" style="fill:#263238"></path><path d="M277.89,233.34a2.84,2.84,0,1,1,2.84,2.68A2.69,2.69,0,0,1,277.89,233.34Zm4.46,0a1.63,1.63,0,1,0-1.62,1.66A1.59,1.59,0,0,0,282.35,233.34Z" style="fill:#263238"></path><path d="M285.47,231.72h-1.66v-1h4.52v1h-1.66v4.21h-1.2Z" style="fill:#263238"></path><path d="M293.48,232.62c0,1.16-.87,1.88-2.26,1.88h-1v1.43H289v-5.19h2.24C292.61,230.74,293.48,231.46,293.48,232.62Zm-1.22,0c0-.57-.37-.9-1.1-.9h-1v1.8h1C291.89,233.52,292.26,233.19,292.26,232.62Z" style="fill:#263238"></path><path d="M221,251.11c0-4.9,2.72-7.68,6.36-7.68s6.37,2.78,6.37,7.68-2.7,7.68-6.37,7.68S221,256,221,251.11Zm9.27,0c0-3.37-1.19-4.77-2.91-4.77s-2.88,1.4-2.88,4.77,1.19,4.77,2.88,4.77S230.28,254.48,230.28,251.11Z" style="fill:#263238"></path><path d="M247.84,254.23c0,2.8-2.5,4.56-6.27,4.56s-6.24-1.76-6.24-4.56a3.78,3.78,0,0,1,2.25-3.5,3.44,3.44,0,0,1-1.72-3c0-2.61,2.33-4.25,5.71-4.25s5.74,1.64,5.74,4.25a3.44,3.44,0,0,1-1.74,3A3.75,3.75,0,0,1,247.84,254.23Zm-3.47-.11c0-1.31-1.09-2.12-2.8-2.12s-2.76.81-2.76,2.12,1.06,2.15,2.76,2.15S244.37,255.44,244.37,254.12Zm-5.09-6.3c0,1.13.89,1.83,2.29,1.83s2.33-.7,2.33-1.83S243,246,241.57,246,239.28,246.66,239.28,247.82Z" style="fill:#263238"></path><path d="M261.85,254.23c0,2.8-2.51,4.56-6.28,4.56s-6.24-1.76-6.24-4.56a3.78,3.78,0,0,1,2.25-3.5,3.44,3.44,0,0,1-1.72-3c0-2.61,2.34-4.25,5.71-4.25s5.75,1.64,5.75,4.25a3.46,3.46,0,0,1-1.74,3A3.76,3.76,0,0,1,261.85,254.23Zm-3.48-.11c0-1.31-1.08-2.12-2.8-2.12s-2.76.81-2.76,2.12,1.06,2.15,2.76,2.15S258.37,255.44,258.37,254.12Zm-5.09-6.3c0,1.13.89,1.83,2.29,1.83s2.33-.7,2.33-1.83S257,246,255.57,246,253.28,246.66,253.28,247.82Z" style="fill:#263238"></path><path d="M269.15,243.69v14.85h-3.44V246.45h-3v-2.76Z" style="fill:#263238"></path><path d="M282.83,255.74v2.8H271.61v-2.23l5.72-5.41c1.32-1.25,1.55-2,1.55-2.74,0-1.16-.8-1.84-2.37-1.84a3.64,3.64,0,0,0-3.08,1.48l-2.5-1.61a6.9,6.9,0,0,1,5.9-2.76c3.3,0,5.51,1.7,5.51,4.39,0,1.45-.4,2.76-2.48,4.69l-3.42,3.23Z" style="fill:#263238"></path><path d="M295.22,254c0,2.5-1.93,4.79-6.15,4.79a10.23,10.23,0,0,1-5.67-1.59l1.34-2.63a7.18,7.18,0,0,0,4.24,1.34c1.72,0,2.78-.7,2.78-1.91s-.83-1.83-2.78-1.83h-1.57V249.9l3.06-3.45h-6.32v-2.76h10.39v2.23l-3.35,3.81C293.86,250.16,295.22,251.81,295.22,254Z" style="fill:#263238"></path></g></svg>